<svg width="160" height="48" viewBox="0 0 160 48" fill="none" xmlns="http://www.w3.org/2000/svg">
<path d="M8.51498 40.2993H5.43664V38.2373C5.43664 37.6377 5.40252 37.2648 5.33427 37.1186C5.2709 36.9675 5.1271 36.8919 4.90286 36.8919C4.64938 36.8919 4.48852 36.9821 4.42027 37.1625C4.35203 37.3428 4.31791 37.7328 4.31791 38.3324V43.831C4.31791 44.4062 4.35203 44.7815 4.42027 44.957C4.48852 45.1325 4.64207 45.2203 4.88093 45.2203C5.11004 45.2203 5.25871 45.1325 5.32696 44.957C5.40008 44.7815 5.43664 44.3696 5.43664 43.7213V42.237H8.51498V42.6976C8.51498 43.9212 8.42724 44.7888 8.25175 45.3007C8.08114 45.8125 7.69848 46.261 7.10377 46.6461C6.51394 47.0312 5.78518 47.2237 4.91749 47.2237C4.01568 47.2237 3.27229 47.0604 2.68733 46.7338C2.10238 46.4072 1.71484 45.9563 1.52473 45.3811C1.33462 44.801 1.23956 43.9309 1.23956 42.7707V39.3122C1.23956 38.4591 1.26881 37.8205 1.32731 37.3964C1.3858 36.9675 1.55885 36.5556 1.84646 36.1607C2.13894 35.7659 2.5411 35.4563 3.05293 35.2321C3.56965 35.003 4.16192 34.8884 4.82974 34.8884C5.73643 34.8884 6.48469 35.0639 7.07452 35.4149C7.66435 35.7659 8.05189 36.2046 8.23713 36.731C8.42236 37.2526 8.51498 38.0667 8.51498 39.1732V40.2993Z" fill="white"/>
<path d="M16.2145 40.6795V43.0559C16.2145 43.9285 16.1706 44.5695 16.0829 44.979C15.9951 45.3836 15.8075 45.7638 15.5199 46.1196C15.2323 46.4706 14.8618 46.7314 14.4084 46.902C13.96 47.0677 13.4433 47.1506 12.8583 47.1506C12.2051 47.1506 11.6518 47.0799 11.1985 46.9386C10.7451 46.7923 10.3917 46.5754 10.1382 46.2878C9.88963 45.9953 9.71171 45.6443 9.60447 45.2349C9.49722 44.8205 9.4436 44.2014 9.4436 43.3776V40.8916C9.4436 39.9898 9.54109 39.2854 9.73608 38.7784C9.93107 38.2714 10.282 37.8644 10.789 37.5573C11.296 37.2502 11.9443 37.0966 12.734 37.0966C13.3969 37.0966 13.9648 37.1966 14.4377 37.3964C14.9154 37.5914 15.2834 37.8473 15.5418 38.1642C15.8001 38.481 15.9756 38.8076 16.0683 39.144C16.1657 39.4803 16.2145 39.9922 16.2145 40.6795ZM13.2605 39.9483C13.2605 39.4511 13.2336 39.1391 13.18 39.0124C13.1264 38.8808 13.0118 38.815 12.8364 38.815C12.6609 38.815 12.5439 38.8808 12.4854 39.0124C12.4269 39.1391 12.3976 39.4511 12.3976 39.9483V44.3282C12.3976 44.7864 12.4269 45.0862 12.4854 45.2276C12.5439 45.3641 12.6584 45.4323 12.829 45.4323C13.0045 45.4323 13.1191 45.3689 13.1727 45.2422C13.2312 45.1154 13.2605 44.8425 13.2605 44.4232V39.9483Z" fill="white"/>
<path d="M20.1995 37.2721L20.1483 38.1642C20.3628 37.8083 20.6236 37.5427 20.9307 37.3672C21.2427 37.1868 21.601 37.0966 22.0056 37.0966C22.5125 37.0966 22.9269 37.2161 23.2486 37.4549C23.5703 37.6938 23.7775 37.996 23.8701 38.3616C23.9628 38.7223 24.0091 39.3268 24.0091 40.175V46.9751H21.055V40.2554C21.055 39.5876 21.0331 39.1806 20.9892 39.0343C20.9453 38.8881 20.8235 38.815 20.6236 38.815C20.414 38.815 20.2824 38.9003 20.2288 39.0709C20.1751 39.2366 20.1483 39.6851 20.1483 40.4163V46.9751H17.1943V37.2721H20.1995Z" fill="white"/>
<path d="M31.0651 40.3724H28.4474V39.8459C28.4474 39.3975 28.4206 39.1148 28.367 38.9978C28.3183 38.8759 28.1915 38.815 27.9868 38.815C27.821 38.815 27.6967 38.871 27.6139 38.9831C27.531 39.0904 27.4896 39.2537 27.4896 39.473C27.4896 39.7704 27.5091 39.9898 27.5481 40.1311C27.5919 40.2676 27.7162 40.4187 27.921 40.5845C28.1306 40.7502 28.5571 40.9915 29.2006 41.3083C30.0585 41.7276 30.6215 42.1224 30.8896 42.4929C31.1577 42.8634 31.2918 43.402 31.2918 44.1088C31.2918 44.8985 31.1894 45.4957 30.9847 45.9003C30.78 46.3 30.4363 46.6095 29.9537 46.8289C29.476 47.0434 28.8983 47.1506 28.2208 47.1506C27.4701 47.1506 26.8266 47.0336 26.2904 46.7996C25.7591 46.5657 25.3935 46.2488 25.1936 45.8491C24.9937 45.4494 24.8938 44.8449 24.8938 44.0357V43.5677H27.5115V44.182C27.5115 44.7035 27.5432 45.0423 27.6066 45.1983C27.6748 45.3543 27.8064 45.4323 28.0014 45.4323C28.211 45.4323 28.3573 45.3811 28.4401 45.2787C28.523 45.1715 28.5644 44.9497 28.5644 44.6134C28.5644 44.1503 28.5108 43.8602 28.4036 43.7432C28.2914 43.6262 27.7187 43.2801 26.6852 42.7049C25.8176 42.2175 25.2887 41.7763 25.0985 41.3815C24.9084 40.9817 24.8134 40.5089 24.8134 39.9629C24.8134 39.1879 24.9157 38.6175 25.1205 38.2519C25.3252 37.8815 25.6713 37.5963 26.1588 37.3964C26.6511 37.1966 27.2215 37.0966 27.8698 37.0966C28.5132 37.0966 29.0592 37.1795 29.5077 37.3453C29.961 37.5061 30.3071 37.7206 30.546 37.9887C30.7897 38.2568 30.9359 38.5054 30.9847 38.7345C31.0383 38.9636 31.0651 39.3219 31.0651 39.8094V40.3724Z" fill="white"/>
<path d="M35.1964 35.9779V37.5061H35.9934V39.0416H35.1964V44.2331C35.1964 44.8717 35.2281 45.2276 35.2914 45.3007C35.3597 45.3738 35.6351 45.4104 36.1177 45.4104V46.9751H34.9258C34.2531 46.9751 33.773 46.9483 33.4854 46.8947C33.1978 46.8362 32.9443 46.707 32.7249 46.5072C32.5056 46.3024 32.3691 46.0709 32.3155 45.8125C32.2618 45.5493 32.235 44.9351 32.235 43.9699V39.0416H31.5989V37.5061H32.235V35.9779H35.1964Z" fill="white"/>
<path d="M39.5982 37.2721L39.4812 38.5444C39.9102 37.6329 40.5317 37.1503 41.3458 37.0966V40.5113C40.8047 40.5113 40.4074 40.5845 40.1539 40.7307C39.9004 40.8769 39.7444 41.0817 39.6859 41.3449C39.6274 41.6033 39.5982 42.2028 39.5982 43.1437V46.9751H36.6442V37.2721H39.5982Z" fill="white"/>
<path d="M48.7747 37.2721V46.9751H45.7695L45.8207 46.1708C45.616 46.4974 45.3625 46.7436 45.0602 46.9093C44.7629 47.0702 44.4192 47.1506 44.0293 47.1506C43.5857 47.1506 43.2176 47.0726 42.9251 46.9166C42.6327 46.7606 42.4157 46.5535 42.2744 46.2951C42.1379 46.0368 42.0526 45.7687 42.0185 45.4908C41.9843 45.2081 41.9673 44.6499 41.9673 43.8164V37.2721H44.9213V43.8748C44.9213 44.6304 44.9433 45.0789 44.9871 45.2203C45.0359 45.3616 45.1626 45.4323 45.3673 45.4323C45.5867 45.4323 45.7159 45.3592 45.7549 45.2129C45.7988 45.0667 45.8207 44.5963 45.8207 43.8017V37.2721H48.7747Z" fill="white"/>
<path d="M56.3646 40.9354H53.5787V39.8167C53.5787 39.4267 53.547 39.1635 53.4836 39.027C53.4203 38.8856 53.3033 38.815 53.1327 38.815C52.9621 38.815 52.8475 38.8759 52.789 38.9978C52.7305 39.1196 52.7013 39.3926 52.7013 39.8167V44.394C52.7013 44.7401 52.7451 45.0009 52.8329 45.1764C52.9206 45.347 53.0498 45.4323 53.2204 45.4323C53.4203 45.4323 53.5543 45.3421 53.6226 45.1618C53.6957 44.9814 53.7323 44.6402 53.7323 44.1381V42.9828H56.3646C56.3597 43.7579 56.3304 44.3404 56.2768 44.7303C56.2281 45.1154 56.0648 45.5127 55.7869 45.9222C55.5139 46.3268 55.1556 46.6339 54.7121 46.8435C54.2685 47.0482 53.7201 47.1506 53.0669 47.1506C52.2333 47.1506 51.5728 47.0092 51.0853 46.7265C50.5979 46.4389 50.2517 46.0392 50.047 45.5274C49.8472 45.0106 49.7472 44.2794 49.7472 43.3338V40.5771C49.7472 39.7533 49.8301 39.1318 49.9958 38.7126C50.1616 38.2934 50.515 37.9205 51.0561 37.5939C51.5972 37.2624 52.2552 37.0966 53.0303 37.0966C53.8005 37.0966 54.4586 37.2599 55.0045 37.5865C55.5505 37.9131 55.9137 38.3251 56.094 38.8223C56.2744 39.3195 56.3646 40.0239 56.3646 40.9354Z" fill="white"/>
<path d="M60.3642 35.9779V37.5061H61.1612V39.0416H60.3642V44.2331C60.3642 44.8717 60.3959 45.2276 60.4593 45.3007C60.5275 45.3738 60.8029 45.4104 61.2855 45.4104V46.9751H60.0937C59.421 46.9751 58.9408 46.9483 58.6532 46.8947C58.3656 46.8362 58.1121 46.707 57.8928 46.5072C57.6734 46.3024 57.5369 46.0709 57.4833 45.8125C57.4297 45.5493 57.4029 44.9351 57.4029 43.9699V39.0416H56.7667V37.5061H57.4029V35.9779H60.3642Z" fill="white"/>
<path d="M64.8538 35.137V36.6799H61.812V35.137H64.8538ZM64.8538 37.2721V46.9751H61.812V37.2721H64.8538Z" fill="white"/>
<path d="M72.6045 40.6795V43.0559C72.6045 43.9285 72.5606 44.5695 72.4728 44.979C72.3851 45.3836 72.1974 45.7638 71.9098 46.1196C71.6222 46.4706 71.2517 46.7314 70.7984 46.902C70.3499 47.0677 69.8332 47.1506 69.2483 47.1506C68.5951 47.1506 68.0418 47.0799 67.5884 46.9386C67.1351 46.7923 66.7817 46.5754 66.5282 46.2878C66.2796 45.9953 66.1017 45.6443 65.9944 45.2349C65.8872 44.8205 65.8336 44.2014 65.8336 43.3776V40.8916C65.8336 39.9898 65.9311 39.2854 66.1261 38.7784C66.321 38.2714 66.672 37.8644 67.179 37.5573C67.6859 37.2502 68.3343 37.0966 69.124 37.0966C69.7869 37.0966 70.3548 37.1966 70.8277 37.3964C71.3054 37.5914 71.6734 37.8473 71.9318 38.1642C72.1901 38.481 72.3656 38.8076 72.4582 39.144C72.5557 39.4803 72.6045 39.9922 72.6045 40.6795ZM69.6504 39.9483C69.6504 39.4511 69.6236 39.1391 69.57 39.0124C69.5164 38.8808 69.4018 38.815 69.2263 38.815C69.0508 38.815 68.9339 38.8808 68.8754 39.0124C68.8169 39.1391 68.7876 39.4511 68.7876 39.9483V44.3282C68.7876 44.7864 68.8169 45.0862 68.8754 45.2276C68.9339 45.3641 69.0484 45.4323 69.219 45.4323C69.3945 45.4323 69.5091 45.3689 69.5627 45.2422C69.6212 45.1154 69.6504 44.8425 69.6504 44.4232V39.9483Z" fill="white"/>
<path d="M76.5895 37.2721L76.5383 38.1642C76.7528 37.8083 77.0136 37.5427 77.3207 37.3672C77.6327 37.1868 77.991 37.0966 78.3956 37.0966C78.9025 37.0966 79.3169 37.2161 79.6386 37.4549C79.9603 37.6938 80.1675 37.996 80.2601 38.3616C80.3527 38.7223 80.399 39.3268 80.399 40.175V46.9751H77.445V40.2554C77.445 39.5876 77.4231 39.1806 77.3792 39.0343C77.3353 38.8881 77.2134 38.815 77.0136 38.815C76.804 38.815 76.6724 38.9003 76.6187 39.0709C76.5651 39.2366 76.5383 39.6851 76.5383 40.4163V46.9751H73.5843V37.2721H76.5895Z" fill="white"/>
<path d="M90.6797 38.7199H87.8207V37.8425C87.8207 37.433 87.7841 37.1722 87.711 37.0601C87.6379 36.948 87.516 36.8919 87.3454 36.8919C87.1602 36.8919 87.0188 36.9675 86.9213 37.1186C86.8287 37.2697 86.7824 37.4988 86.7824 37.8059C86.7824 38.2008 86.836 38.4981 86.9433 38.698C87.0456 38.8978 87.3357 39.1391 87.8134 39.4219C89.1832 40.2359 90.046 40.9037 90.4018 41.4253C90.7577 41.9469 90.9356 42.7878 90.9356 43.948C90.9356 44.7913 90.8357 45.4128 90.6358 45.8125C90.4408 46.2122 90.0606 46.5486 89.4951 46.8216C88.9297 47.0897 88.2716 47.2237 87.5209 47.2237C86.6971 47.2237 85.9927 47.0677 85.4077 46.7558C84.8277 46.4438 84.4474 46.0465 84.2671 45.5639C84.0867 45.0813 83.9965 44.3964 83.9965 43.5092V42.7342H86.8555V44.1746C86.8555 44.6182 86.8945 44.9034 86.9725 45.0301C87.0554 45.1569 87.1992 45.2203 87.4039 45.2203C87.6086 45.2203 87.7598 45.1398 87.8572 44.979C87.9596 44.8181 88.0108 44.5792 88.0108 44.2624C88.0108 43.5653 87.9157 43.1095 87.7256 42.895C87.5306 42.6806 87.0505 42.3223 86.2852 41.8202C85.5199 41.3132 85.0129 40.9452 84.7643 40.7161C84.5157 40.487 84.3085 40.1701 84.1428 39.7655C83.9819 39.3609 83.9015 38.8442 83.9015 38.2154C83.9015 37.3087 84.016 36.6457 84.2451 36.2265C84.4791 35.8073 84.8545 35.4807 85.3712 35.2467C85.8879 35.0079 86.5118 34.8884 87.243 34.8884C88.0425 34.8884 88.7225 35.0176 89.2831 35.276C89.8485 35.5343 90.2215 35.8609 90.4018 36.2558C90.5871 36.6457 90.6797 37.3111 90.6797 38.2519V38.7199Z" fill="white"/>
<path d="M98.5035 40.6795V43.0559C98.5035 43.9285 98.4596 44.5695 98.3719 44.979C98.2841 45.3836 98.0965 45.7638 97.8089 46.1196C97.5212 46.4706 97.1508 46.7314 96.6974 46.902C96.249 47.0677 95.7322 47.1506 95.1473 47.1506C94.4941 47.1506 93.9408 47.0799 93.4875 46.9386C93.0341 46.7923 92.6807 46.5754 92.4272 46.2878C92.1786 45.9953 92.0007 45.6443 91.8935 45.2349C91.7862 44.8205 91.7326 44.2014 91.7326 43.3776V40.8916C91.7326 39.9898 91.8301 39.2854 92.0251 38.7784C92.2201 38.2714 92.571 37.8644 93.078 37.5573C93.585 37.2502 94.2333 37.0966 95.023 37.0966C95.6859 37.0966 96.2538 37.1966 96.7267 37.3964C97.2044 37.5914 97.5724 37.8473 97.8308 38.1642C98.0891 38.481 98.2646 38.8076 98.3572 39.144C98.4547 39.4803 98.5035 39.9922 98.5035 40.6795ZM95.5495 39.9483C95.5495 39.4511 95.5226 39.1391 95.469 39.0124C95.4154 38.8808 95.3008 38.815 95.1254 38.815C94.9499 38.815 94.8329 38.8808 94.7744 39.0124C94.7159 39.1391 94.6866 39.4511 94.6866 39.9483V44.3282C94.6866 44.7864 94.7159 45.0862 94.7744 45.2276C94.8329 45.3641 94.9474 45.4323 95.118 45.4323C95.2935 45.4323 95.4081 45.3689 95.4617 45.2422C95.5202 45.1154 95.5495 44.8425 95.5495 44.4232V39.9483Z" fill="white"/>
<path d="M102.525 35.137V46.9751H99.4833V35.137H102.525Z" fill="white"/>
<path d="M110.356 37.2721V46.9751H107.351L107.402 46.1708C107.197 46.4974 106.944 46.7436 106.642 46.9093C106.344 47.0702 106.001 47.1506 105.611 47.1506C105.167 47.1506 104.799 47.0726 104.507 46.9166C104.214 46.7606 103.997 46.5535 103.856 46.2951C103.719 46.0368 103.634 45.7687 103.6 45.4908C103.566 45.2081 103.549 44.6499 103.549 43.8164V37.2721H106.503V43.8748C106.503 44.6304 106.525 45.0789 106.569 45.2203C106.617 45.3616 106.744 45.4323 106.949 45.4323C107.168 45.4323 107.297 45.3592 107.336 45.2129C107.38 45.0667 107.402 44.5963 107.402 43.8017V37.2721H110.356Z" fill="white"/>
<path d="M114.531 35.9779V37.5061H115.328V39.0416H114.531V44.2331C114.531 44.8717 114.563 45.2276 114.626 45.3007C114.695 45.3738 114.97 45.4104 115.453 45.4104V46.9751H114.261C113.588 46.9751 113.108 46.9483 112.82 46.8947C112.533 46.8362 112.279 46.707 112.06 46.5072C111.841 46.3024 111.704 46.0709 111.65 45.8125C111.597 45.5493 111.57 44.9351 111.57 43.9699V39.0416H110.934V37.5061H111.57V35.9779H114.531Z" fill="white"/>
<path d="M119.021 35.137V36.6799H115.979V35.137H119.021ZM119.021 37.2721V46.9751H115.979V37.2721H119.021Z" fill="white"/>
<path d="M126.772 40.6795V43.0559C126.772 43.9285 126.728 44.5695 126.64 44.979C126.552 45.3836 126.365 45.7638 126.077 46.1196C125.789 46.4706 125.419 46.7314 124.966 46.902C124.517 47.0677 124 47.1506 123.415 47.1506C122.762 47.1506 122.209 47.0799 121.756 46.9386C121.302 46.7923 120.949 46.5754 120.695 46.2878C120.447 45.9953 120.269 45.6443 120.162 45.2349C120.054 44.8205 120.001 44.2014 120.001 43.3776V40.8916C120.001 39.9898 120.098 39.2854 120.293 38.7784C120.488 38.2714 120.839 37.8644 121.346 37.5573C121.853 37.2502 122.501 37.0966 123.291 37.0966C123.954 37.0966 124.522 37.1966 124.995 37.3964C125.472 37.5914 125.841 37.8473 126.099 38.1642C126.357 38.481 126.533 38.8076 126.625 39.144C126.723 39.4803 126.772 39.9922 126.772 40.6795ZM123.818 39.9483C123.818 39.4511 123.791 39.1391 123.737 39.0124C123.684 38.8808 123.569 38.815 123.393 38.815C123.218 38.815 123.101 38.8808 123.042 39.0124C122.984 39.1391 122.955 39.4511 122.955 39.9483V44.3282C122.955 44.7864 122.984 45.0862 123.042 45.2276C123.101 45.3641 123.216 45.4323 123.386 45.4323C123.562 45.4323 123.676 45.3689 123.73 45.2422C123.788 45.1154 123.818 44.8425 123.818 44.4232V39.9483Z" fill="white"/>
<path d="M130.757 37.2721L130.705 38.1642C130.92 37.8083 131.181 37.5427 131.488 37.3672C131.8 37.1868 132.158 37.0966 132.563 37.0966C133.07 37.0966 133.484 37.2161 133.806 37.4549C134.127 37.6938 134.335 37.996 134.427 38.3616C134.52 38.7223 134.566 39.3268 134.566 40.175V46.9751H131.612V40.2554C131.612 39.5876 131.59 39.1806 131.546 39.0343C131.502 38.8881 131.381 38.815 131.181 38.815C130.971 38.815 130.839 38.9003 130.786 39.0709C130.732 39.2366 130.705 39.6851 130.705 40.4163V46.9751H127.751V37.2721H130.757Z" fill="white"/>
<path d="M141.403 35.137V46.9751H138.325V35.137H141.403Z" fill="white"/>
<path d="M145.556 37.2721L145.505 38.1642C145.719 37.8083 145.98 37.5427 146.287 37.3672C146.599 37.1868 146.958 37.0966 147.362 37.0966C147.869 37.0966 148.283 37.2161 148.605 37.4549C148.927 37.6938 149.134 37.996 149.227 38.3616C149.319 38.7223 149.366 39.3268 149.366 40.175V46.9751H146.412V40.2554C146.412 39.5876 146.39 39.1806 146.346 39.0343C146.302 38.8881 146.18 38.815 145.98 38.815C145.771 38.815 145.639 38.9003 145.585 39.0709C145.532 39.2366 145.505 39.6851 145.505 40.4163V46.9751H142.551V37.2721H145.556Z" fill="white"/>
<path d="M156.919 40.9354H154.133V39.8167C154.133 39.4267 154.101 39.1635 154.038 39.027C153.975 38.8856 153.858 38.815 153.687 38.815C153.516 38.815 153.402 38.8759 153.343 38.9978C153.285 39.1196 153.256 39.3926 153.256 39.8167V44.394C153.256 44.7401 153.299 45.0009 153.387 45.1764C153.475 45.347 153.604 45.4323 153.775 45.4323C153.975 45.4323 154.109 45.3421 154.177 45.1618C154.25 44.9814 154.287 44.6402 154.287 44.1381V42.9828H156.919C156.914 43.7579 156.885 44.3404 156.831 44.7303C156.782 45.1154 156.619 45.5127 156.341 45.9222C156.068 46.3268 155.71 46.6339 155.266 46.8435C154.823 47.0482 154.274 47.1506 153.621 47.1506C152.788 47.1506 152.127 47.0092 151.64 46.7265C151.152 46.4389 150.806 46.0392 150.601 45.5274C150.401 45.0106 150.302 44.2794 150.302 43.3338V40.5771C150.302 39.7533 150.384 39.1318 150.55 38.7126C150.716 38.2934 151.069 37.9205 151.61 37.5939C152.151 37.2624 152.81 37.0966 153.585 37.0966C154.355 37.0966 155.013 37.2599 155.559 37.5865C156.105 37.9131 156.468 38.3251 156.648 38.8223C156.829 39.3195 156.919 40.0239 156.919 40.9354Z" fill="white"/>
<path d="M159.771 44.5622V46.9751H157.54V44.5622H159.771Z" fill="white"/>
<path d="M26.2483 25.0477C26.2483 26.1283 25.9285 26.9641 25.289 27.5551C24.6539 28.1416 23.7498 28.4349 22.5766 28.4349H21.8423V31.6435H19.2291V21.9715H22.5766C23.7983 21.9715 24.7157 22.2383 25.3287 22.772C25.9418 23.3056 26.2483 24.0642 26.2483 25.0477ZM21.8423 26.3047H22.3186C22.7111 26.3047 23.0221 26.1945 23.2514 25.9739C23.4852 25.7534 23.602 25.4491 23.602 25.061C23.602 24.4082 23.2404 24.0819 22.5171 24.0819H21.8423V26.3047Z" fill="white"/>
<path d="M30.4029 28.124V31.6435H27.7897V21.9715H30.9586C33.5872 21.9715 34.9015 22.9241 34.9015 24.8294C34.9015 25.9497 34.3546 26.8163 33.2608 27.4294L36.0791 31.6435H33.1153L31.0644 28.124H30.4029ZM30.4029 26.1592H30.8924C31.8054 26.1592 32.2619 25.7556 32.2619 24.9485C32.2619 24.2825 31.8142 23.9496 30.9189 23.9496H30.4029V26.1592Z" fill="white"/>
<path d="M46.0091 26.7943C46.0091 28.4217 45.6099 29.6588 44.8116 30.5056C44.0134 31.3524 42.8446 31.7758 41.3054 31.7758C39.7882 31.7758 38.6239 31.3502 37.8123 30.499C37.0052 29.6478 36.6017 28.4085 36.6017 26.781C36.6017 25.1712 37.003 23.9429 37.8057 23.0961C38.6128 22.2449 39.7838 21.8193 41.3186 21.8193C42.8578 21.8193 44.0244 22.2405 44.8183 23.0829C45.6121 23.9253 46.0091 25.1624 46.0091 26.7943ZM39.3538 26.7943C39.3538 28.6643 40.0043 29.5993 41.3054 29.5993C41.9669 29.5993 42.4565 29.3721 42.774 28.9179C43.096 28.4636 43.257 27.7557 43.257 26.7943C43.257 25.8284 43.0938 25.1161 42.7674 24.6574C42.4455 24.1943 41.9625 23.9628 41.3186 23.9628C40.0087 23.9628 39.3538 24.9066 39.3538 26.7943Z" fill="white"/>
<path d="M0 31.7326H6.32869L31.9109 5.79387L58.2061 32H160L154.83 26.8301H62.663L80.2228 6.23955L90.8301 11.8552L82.8969 2.9415L54.0167 5.79387V4.45682H54.6407V1.51532H47.4206V4.45682H47.8663V6.23955L39.4875 6.95265L32.0891 0L15.1532 16.8468V14.8858H10.6964V21.3928L0 31.7326Z" fill="white"/>
<path d="M70.507 22.1058H87.0863L92.7019 15.3314L103.398 21.3036L95.4652 12.3008L77.2813 14.0835L70.507 22.1058Z" fill="white"/>
<path d="M29.2368 10.7854H31.9108V13.4595H29.2368V10.7854Z" fill="white"/>
<path d="M90.9192 19.1643H93.5933V21.8384H90.9192V19.1643Z" fill="white"/>
<path d="M32.4457 10.7854H35.1198V13.4595H32.4457V10.7854Z" fill="white"/>
<path d="M94.1281 19.1643H96.8022V21.8384H94.1281V19.1643Z" fill="white"/>
<path d="M32.4457 13.9944H35.1198V16.6685H32.4457V13.9944Z" fill="white"/>
<path d="M94.1281 22.373H96.8022V25.0471H94.1281V22.373Z" fill="white"/>
<path d="M29.2368 13.9944H31.9108V16.6685H29.2368V13.9944Z" fill="white"/>
<path d="M90.9192 22.373H93.5933V25.0471H90.9192V22.373Z" fill="white"/>
</svg>
